<svg viewBox="0 0 18 18" fill="none" xmlns="http://www.w3.org/2000/svg" x="0" y="0"><path id="Vector_3" d="M16.2111,7.1999c0,-0.2387 -0.095,-0.4676 -0.264,-0.6364c-0.168,-0.1688 -0.397,-0.2636 -0.636,-0.2636c-0.239,0 -0.468,0.0948 -0.636,0.2636c-0.169,0.1688 -0.264,0.3977 -0.264,0.6364zM3.6111,7.1999c0,-0.2387 -0.095,-0.4676 -0.264,-0.6364c-0.168,-0.1688 -0.397,-0.2636 -0.636,-0.2636c-0.239,0 -0.468,0.0948 -0.636,0.2636c-0.169,0.1688 -0.264,0.3977 -0.264,0.6364zM16.4751,9.6362c0.169,0.164 0.397,0.2547 0.633,0.2526c0.236,-0.002 0.461,-0.0967 0.628,-0.2636c0.167,-0.1668 0.262,-0.3926 0.264,-0.6285c0.002,-0.236 -0.089,-0.4634 -0.253,-0.6331zM9.0111,0.8998l0.636,-0.6363c-0.169,-0.1687 -0.397,-0.2635 -0.636,-0.2635c-0.239,0 -0.468,0.0948 -0.636,0.2635zM0.2751,8.3636c-0.086,0.083 -0.155,0.1823 -0.202,0.2921c-0.047,0.1098 -0.072,0.2279 -0.073,0.3474c-0.001,0.1195 0.022,0.2381 0.067,0.3487c0.045,0.1106 0.112,0.2111 0.197,0.2956c0.084,0.0845 0.184,0.1513 0.295,0.1966c0.111,0.0452 0.229,0.068 0.349,0.0669c0.119,-0.001 0.237,-0.0258 0.347,-0.073c0.11,-0.0472 0.209,-0.1157 0.292,-0.2017zM4.5111,18h9v-1.8h-9zM16.2111,15.3v-8.1001h-1.8v8.1001zM3.6111,15.3v-8.1001h-1.8v8.1001zM17.7471,8.3636l-8.1,-8.1001l-1.272,1.2726l8.1,8.1001zM8.3751,0.2635l-8.1,8.1001l1.272,1.2726l8.1,-8.1001zM13.5111,18c0.716,0 1.403,-0.2845 1.909,-0.7908c0.506,-0.5064 0.791,-1.1931 0.791,-1.9092h-1.8c0,0.2387 -0.095,0.4676 -0.264,0.6364c-0.168,0.1688 -0.397,0.2636 -0.636,0.2636zM4.5111,16.2c-0.239,0 -0.468,-0.0948 -0.636,-0.2636c-0.169,-0.1688 -0.264,-0.3977 -0.264,-0.6364h-1.8c0,0.7161 0.284,1.4028 0.791,1.9092c0.506,0.5063 1.193,0.7908 1.909,0.7908z" fill="currentColor"/></svg>