<svg viewBox="0 0 18 18" fill="none" xmlns="http://www.w3.org/2000/svg" x="0" y="0"><path id="Vector_5" d="M6.3701,12.7412c-1.77,0 -3.28,-0.6174 -4.52,-1.8523c-1.23,-1.2341 -1.85,-2.7402 -1.85,-4.5183c0,-1.7781 0.62,-3.2846 1.85,-4.5195c1.24,-1.2348 2.75,-1.8518 4.52,-1.8511c1.78,0.0007 3.29,0.6182 4.53,1.8523c1.23,1.234 1.85,2.7402 1.85,4.5183c0,0.7723 -0.14,1.5198 -0.41,2.2425c-0.28,0.7227 -0.63,1.3408 -1.08,1.8545l6.57,6.5674c0.11,0.1037 0.16,0.2316 0.17,0.3835c0.01,0.1505 -0.05,0.285 -0.17,0.4036c-0.12,0.1186 -0.25,0.1779 -0.39,0.1779c-0.15,0 -0.28,-0.0593 -0.4,-0.1779l-6.57,-6.5685c-0.55,0.4736 -1.19,0.8402 -1.92,1.0996c-0.72,0.2594 -1.45,0.3891 -2.18,0.3891M6.3701,11.6305c1.48,0 2.73,-0.5077 3.74,-1.5231c1.02,-1.0155 1.53,-2.2611 1.53,-3.7368c0,-1.4757 -0.51,-2.7209 -1.53,-3.7356c-1.01,-1.0147 -2.26,-1.5225 -3.73,-1.5232c-1.48,0 -2.73,0.5077 -3.74,1.5232c-1.02,1.0154 -1.53,2.2606 -1.53,3.7356c0,1.475 0.51,2.7202 1.53,3.7356c1.01,1.0155 2.26,1.5232 3.73,1.5232" fill="currentColor"/></svg>