<svg viewBox="0 0 27 25" fill="none" xmlns="http://www.w3.org/2000/svg" x="0" y="0"><path id="Vector" d="M7.269,0c-0.575,0 -1.038,0.465 -1.038,1.042v18.75c0,0.577 0.463,1.041 1.038,1.041h2.077c0.575,0 1.039,-0.464 1.039,-1.041v-18.75c0,-0.577 -0.464,-1.042 -1.039,-1.042zM13.5,2.083c-0.575,0 -1.038,0.465 -1.038,1.042v16.667c0,0.577 0.463,1.041 1.038,1.041h2.077c0.575,0 1.038,-0.464 1.038,-1.041v-16.667c0,-0.577 -0.463,-1.042 -1.038,-1.042zM20.871,4.146c-0.072,0.005 -0.143,0.018 -0.212,0.037l-2.004,0.538c-0.132,0.035 -0.255,0.097 -0.363,0.18c-0.109,0.083 -0.199,0.187 -0.267,0.306c-0.069,0.119 -0.113,0.249 -0.13,0.385c-0.018,0.136 -0.009,0.274 0.027,0.406l3.759,14.087c0.035,0.133 0.096,0.257 0.18,0.366c0.083,0.108 0.187,0.199 0.305,0.268c0.119,0.068 0.25,0.112 0.385,0.13c0.136,0.017 0.273,0.008 0.405,-0.028l2.004,-0.542c0.266,-0.072 0.492,-0.246 0.629,-0.484c0.137,-0.239 0.175,-0.522 0.105,-0.789l-3.76,-14.087c-0.061,-0.232 -0.201,-0.435 -0.395,-0.575c-0.193,-0.141 -0.429,-0.212 -0.668,-0.198zM1.038,4.167c-0.575,0 -1.038,0.464 -1.038,1.041v14.584c0,0.577 0.463,1.041 1.038,1.041h2.077c0.576,0 1.039,-0.464 1.039,-1.041v-14.584c0,-0.577 -0.463,-1.041 -1.039,-1.041zM1.038,22.917c-0.275,0 -0.539,0.109 -0.734,0.305c-0.195,0.195 -0.304,0.46 -0.304,0.736c0,0.277 0.109,0.542 0.304,0.737c0.195,0.195 0.459,0.305 0.734,0.305h24.924c0.275,0 0.539,-0.11 0.734,-0.305c0.195,-0.195 0.304,-0.46 0.304,-0.737c0,-0.276 -0.109,-0.541 -0.304,-0.736c-0.195,-0.196 -0.459,-0.305 -0.734,-0.305z" fill="currentColor"/></svg>