<svg viewBox="0 0 17.6 18" fill="none" xmlns="http://www.w3.org/2000/svg" x="0" y="0"><path id="Vector_6" d="M2.0001,18c-0.55,0 -1.02,-0.1957 -1.41,-0.587c-0.39,-0.3913 -0.59,-0.8623 -0.59,-1.413v-14c0,-0.55 0.2,-1.0207 0.59,-1.412c0.39,-0.3913 0.86,-0.5873 1.41,-0.588h6c0.28,0 0.52,0.096 0.71,0.288c0.19,0.192 0.29,0.4293 0.29,0.712c0,0.2827 -0.1,0.5203 -0.29,0.713c-0.19,0.1927 -0.43,0.2883 -0.71,0.287h-6v14h6c0.28,0 0.52,0.096 0.71,0.288c0.19,0.192 0.29,0.4293 0.29,0.712c0,0.2827 -0.1,0.5203 -0.29,0.713c-0.19,0.1927 -0.43,0.2883 -0.71,0.287zM14.1701,10h-7.17c-0.28,0 -0.52,-0.096 -0.71,-0.288c-0.19,-0.192 -0.29,-0.4293 -0.29,-0.712c0,-0.2827 0.1,-0.52 0.29,-0.712c0.19,-0.192 0.43,-0.288 0.71,-0.288h7.17l-1.87,-1.875c-0.18,-0.1833 -0.28,-0.4083 -0.28,-0.675c0,-0.2667 0.1,-0.5 0.28,-0.7c0.18,-0.2 0.42,-0.3043 0.7,-0.313c0.28,-0.0087 0.52,0.0873 0.72,0.288l3.58,3.575c0.2,0.2 0.3,0.4333 0.3,0.7c0,0.2667 -0.1,0.5 -0.3,0.7l-3.58,3.575c-0.2,0.2 -0.43,0.296 -0.71,0.288c-0.27,-0.008 -0.51,-0.1123 -0.71,-0.313c-0.18,-0.2 -0.27,-0.4373 -0.26,-0.712c0.01,-0.2747 0.1,-0.504 0.28,-0.688z" fill="currentColor"/></svg>