<svg viewBox="0 0 27 25" fill="none" xmlns="http://www.w3.org/2000/svg" x="0" y="0"><path id="Vector_2" d="M7.269,0c-0.575,0 -1.038,0.4646 -1.038,1.0417v18.75c0,0.577 0.463,1.0416 1.038,1.0416h2.077c0.575,0 1.039,-0.4646 1.039,-1.0416v-18.75c0,-0.5771 -0.464,-1.0417 -1.039,-1.0417zM13.5,2.0833c-0.575,0 -1.038,0.4646 -1.038,1.0417v16.6667c0,0.577 0.463,1.0416 1.038,1.0416h2.077c0.575,0 1.038,-0.4646 1.038,-1.0416v-16.6667c0,-0.5771 -0.463,-1.0417 -1.038,-1.0417zM20.871,4.1458c-0.072,0.0051 -0.143,0.0177 -0.212,0.0375l-2.004,0.5375c-0.132,0.0356 -0.255,0.0968 -0.363,0.1802c-0.109,0.0834 -0.199,0.1874 -0.267,0.306c-0.069,0.1186 -0.113,0.2495 -0.13,0.3852c-0.018,0.1357 -0.009,0.2736 0.027,0.4057l3.759,14.0875c0.035,0.1324 0.096,0.2565 0.18,0.3652c0.083,0.1086 0.187,0.1997 0.305,0.268c0.119,0.0684 0.25,0.1126 0.385,0.1301c0.136,0.0175 0.273,0.0081 0.405,-0.0279l2.004,-0.5416c0.266,-0.0718 0.492,-0.2461 0.629,-0.4846c0.137,-0.2386 0.175,-0.5221 0.105,-0.7883l-3.76,-14.0876c-0.061,-0.2316 -0.201,-0.4347 -0.395,-0.5752c-0.193,-0.1404 -0.429,-0.2116 -0.668,-0.1977zM1.038,4.1667c-0.575,0 -1.038,0.4645 -1.038,1.0416v14.5834c0,0.577 0.463,1.0416 1.038,1.0416h2.077c0.576,0 1.039,-0.4646 1.039,-1.0416v-14.5834c0,-0.5771 -0.463,-1.0416 -1.039,-1.0416zM1.038,22.9167c-0.275,0 -0.539,0.1097 -0.734,0.3051c-0.195,0.1953 -0.304,0.4603 -0.304,0.7365c0,0.2763 0.109,0.5413 0.304,0.7366c0.195,0.1954 0.459,0.3051 0.734,0.3051h24.924c0.275,0 0.539,-0.1097 0.734,-0.3051c0.195,-0.1953 0.304,-0.4603 0.304,-0.7366c0,-0.2762 -0.109,-0.5412 -0.304,-0.7365c-0.195,-0.1954 -0.459,-0.3051 -0.734,-0.3051z" fill="currentColor"/></svg>