<svg viewBox="0 0 20 16" fill="none" xmlns="http://www.w3.org/2000/svg" x="0" y="0"><path id="Vector_2" d="M2,16c-0.55,0 -1.021,-0.196 -1.412,-0.587c-0.391,-0.391 -0.587,-0.862 -0.588,-1.413v-12c0,-0.55 0.196,-1.021 0.588,-1.412c0.392,-0.391 0.863,-0.587 1.412,-0.588h16c0.55,0 1.021,0.196 1.413,0.588c0.392,0.392 0.588,0.863 0.587,1.412v12c0,0.55 -0.196,1.021 -0.587,1.413c-0.391,0.392 -0.862,0.588 -1.413,0.587zM18,4l-7.475,4.675c-0.083,0.05 -0.171,0.088 -0.262,0.113c-0.091,0.025 -0.179,0.038 -0.263,0.037c-0.084,-0.001 -0.171,-0.013 -0.262,-0.037c-0.091,-0.024 -0.178,-0.062 -0.263,-0.113l-7.475,-4.675v10h16zM10,7l8,-5h-16zM2,4.25v-1.475v0.025v-0.012z" fill="currentColor"/></svg>